<?xml version="1.0" encoding="UTF-8" standalone="no"?>
<svg
   version="1.1"
   width="32"
   height="32"
   viewBox="0 0 32 32"
   id="svg59"
   sodipodi:docname="start.svg"
   inkscape:version="1.2 (dc2aeda, 2022-05-15)"
   xmlns:inkscape="http://www.inkscape.org/namespaces/inkscape"
   xmlns:sodipodi="http://sodipodi.sourceforge.net/DTD/sodipodi-0.dtd"
   xmlns="http://www.w3.org/2000/svg"
   xmlns:svg="http://www.w3.org/2000/svg">
  <defs
     id="defs63">
    <filter
       inkscape:collect="always"
       style="color-interpolation-filters:sRGB"
       id="filter927"
       x="-0.3"
       y="-0.3"
       width="1.6"
       height="1.6">
      <feGaussianBlur
         inkscape:collect="always"
         stdDeviation="2.5"
         id="feGaussianBlur929" />
    </filter>
  </defs>
  <sodipodi:namedview
     id="namedview61"
     pagecolor="#505050"
     bordercolor="#ffffff"
     borderopacity="1"
     inkscape:showpageshadow="0"
     inkscape:pageopacity="0"
     inkscape:pagecheckerboard="1"
     inkscape:deskcolor="#505050"
     showgrid="false"
     inkscape:zoom="34.041667"
     inkscape:cx="13.835985"
     inkscape:cy="16.02448"
     inkscape:window-width="1390"
     inkscape:window-height="967"
     inkscape:window-x="0"
     inkscape:window-y="25"
     inkscape:window-maximized="0"
     inkscape:current-layer="svg59" />
  <path
     d="m 14,20.5 v -9 L 20,16 M 16,6.0000002 A 10,10 0 0 0 6.0000002,16 10,10 0 0 0 16,26 10,10 0 0 0 26,16 10,10 0 0 0 16,6.0000002 Z"
     id="path57"
     style="fill:#000000;fill-opacity:0.898305;filter:url(#filter927)" />
  <path
     d="m 14,20.5 v -9 L 20,16 M 16,6.0000002 A 10,10 0 0 0 6.0000002,16 10,10 0 0 0 16,26 10,10 0 0 0 26,16 10,10 0 0 0 16,6.0000002 Z"
     id="path57-3"
     style="fill:#5ec957;fill-opacity:1" />
</svg>
