<?xml version="1.0" encoding="UTF-8" standalone="no"?>
<svg
   version="1.1"
   width="23"
   height="23"
   viewBox="0 0 23 23"
   id="svg51"
   sodipodi:docname="stop.svg"
   inkscape:version="1.2 (dc2aeda, 2022-05-15)"
   xmlns:inkscape="http://www.inkscape.org/namespaces/inkscape"
   xmlns:sodipodi="http://sodipodi.sourceforge.net/DTD/sodipodi-0.dtd"
   xmlns="http://www.w3.org/2000/svg"
   xmlns:svg="http://www.w3.org/2000/svg">
  <defs
     id="defs55">
    <filter
       inkscape:collect="always"
       style="color-interpolation-filters:sRGB"
       id="filter916"
       x="-0.075"
       y="-0.075"
       width="1.15"
       height="1.15">
      <feGaussianBlur
         inkscape:collect="always"
         stdDeviation="0.625"
         id="feGaussianBlur918" />
    </filter>
  </defs>
  <sodipodi:namedview
     id="namedview53"
     pagecolor="#505050"
     bordercolor="#ffffff"
     borderopacity="1"
     inkscape:showpageshadow="0"
     inkscape:pageopacity="0"
     inkscape:pagecheckerboard="1"
     inkscape:deskcolor="#505050"
     showgrid="false"
     inkscape:zoom="34.041667"
     inkscape:cx="9.8996327"
     inkscape:cy="11.529988"
     inkscape:window-width="1390"
     inkscape:window-height="967"
     inkscape:window-x="0"
     inkscape:window-y="25"
     inkscape:window-maximized="0"
     inkscape:current-layer="svg51" />
  <path
     d="M 11.5,1.5000001 A 10,10 0 0 0 1.5000001,11.5 10,10 0 0 0 11.5,21.5 a 10,10 0 0 0 10,-10 10,10 0 0 0 -10,-9.9999999 m -2.9999999,7 H 14.5 V 14.5 H 8.5000001"
     id="path49-0"
     style="fill:#000000;fill-opacity:1;stroke:none;stroke-opacity:1;filter:url(#filter916)" />
  <path
     d="M 11.5,1.5000001 A 10,10 0 0 0 1.5000001,11.5 10,10 0 0 0 11.5,21.5 a 10,10 0 0 0 10,-10 10,10 0 0 0 -10,-9.9999999 m -2.9999999,7 H 14.5 V 14.5 H 8.5000001"
     id="path49"
     style="fill:#5ec957;fill-opacity:1;stroke:none;stroke-opacity:1" />
  <rect
     style="opacity:1;fill:#000000;stroke-width:0.39685;fill-opacity:1"
     id="rect288"
     width="5.9926562"
     height="6.0807834"
     x="8.5189714"
     y="8.4602203" />
</svg>
