<?xml version="1.0" encoding="UTF-8" standalone="no"?>
<!-- Created with Inkscape (http://www.inkscape.org/) -->

<svg
   width="29.992331mm"
   height="29.999784mm"
   viewBox="0 0 29.992331 29.999784"
   version="1.1"
   id="svg1"
   xml:space="preserve"
   inkscape:export-filename="rally.svg"
   inkscape:export-xdpi="96"
   inkscape:export-ydpi="96"
   xmlns:inkscape="http://www.inkscape.org/namespaces/inkscape"
   xmlns:sodipodi="http://sodipodi.sourceforge.net/DTD/sodipodi-0.dtd"
   xmlns="http://www.w3.org/2000/svg"
   xmlns:svg="http://www.w3.org/2000/svg"><sodipodi:namedview
     id="namedview1"
     pagecolor="#ffffff"
     bordercolor="#000000"
     borderopacity="0.25"
     inkscape:showpageshadow="2"
     inkscape:pageopacity="0.0"
     inkscape:pagecheckerboard="0"
     inkscape:deskcolor="#d1d1d1"
     inkscape:document-units="mm"
     inkscape:zoom="3.0395903"
     inkscape:cx="506.81172"
     inkscape:cy="644.00126"
     inkscape:window-width="1848"
     inkscape:window-height="1053"
     inkscape:window-x="72"
     inkscape:window-y="27"
     inkscape:window-maximized="1"
     inkscape:current-layer="layer1" /><defs
     id="defs1" /><g
     inkscape:label="Layer 1"
     inkscape:groupmode="layer"
     id="layer1"
     transform="translate(-131.37874,-160.44505)"><g
       style="fill:#000000"
       id="g1"
       transform="matrix(0.71909168,0.71909168,-0.71909168,0.71909168,146.37864,152.43401)"><g
         id="SVGRepo_bgCarrier"
         stroke-width="0" /><g
         id="SVGRepo_tracerCarrier"
         stroke-linecap="round"
         stroke-linejoin="round" /><g
         id="SVGRepo_iconCarrier"><title
           id="title1">circle</title><path
           d="M 16,1.25 C 7.854,1.25 1.25,7.854 1.25,16 c 0,8.146 6.604,14.75 14.75,14.75 8.146,0 14.75,-6.604 14.75,-14.75 v 0 C 30.74,7.858 24.142,1.26 16.001,1.25 Z m 0,28 C 8.682,29.25 2.75,23.318 2.75,16 2.75,8.682 8.682,2.75 16,2.75 23.318,2.75 29.25,8.682 29.25,16 v 0 c -0.008,7.314 -5.936,13.242 -13.249,13.25 z"
           id="path1-5" /></g></g><path
       style="fill:#ffffff;stroke:#000000;stroke-width:0.174091;stroke-opacity:6.58222e-07"
       d="m 144.67417,188.70831 c -2.38516,-0.35661 -5.02156,-1.47853 -6.57675,-2.79874 l -0.56097,-0.47625 1.00072,-1.01063 1.00073,-1.01063 -1e-5,1.09763 c 1e-5,1.30418 0.20653,1.7711 0.78341,1.77109 0.64298,1e-5 0.78342,-0.4837 0.78341,-2.69841 0,-1.11372 -0.0811,-2.17647 -0.18021,-2.36168 -0.16494,-0.30818 -0.38584,-0.33677 -2.60525,-0.33674 -2.24685,1e-5 -2.43872,0.0256 -2.61137,0.34819 -0.1324,0.24737 -0.1324,0.44898 0,0.69636 0.16152,0.30181 0.36448,0.34821 1.52398,0.34818 h 1.33763 l -1.03906,1.05505 -1.03907,1.05505 -0.52225,-0.59918 c -1.43314,-1.64409 -2.56388,-4.36406 -2.88765,-6.94613 -0.28884,-2.30362 0.19674,-5.03947 1.27552,-7.18637 0.55976,-1.11403 1.85033,-3.04661 2.0345,-3.0466 0.0609,0 0.57258,0.46665 1.13699,1.03701 l 1.02595,1.03726 -1.46687,0.0511 c -1.38146,0.0481 -1.47018,0.0744 -1.52375,0.45235 -0.11394,0.80366 0.18325,0.90439 2.66825,0.90439 1.75554,1e-5 2.35556,-0.0578 2.50805,-0.24152 0.1355,-0.16322 0.18471,-1.02375 0.15189,-2.65489 l -0.0486,-2.41337 h -0.60932 -0.60931 l -0.087,1.35616 -0.0871,1.35616 -1.00596,-1.01868 -1.00596,-1.0187 1.0063,-0.75418 c 1.16874,-0.87592 3.06552,-1.80003 4.51646,-2.20043 1.50544,-0.41541 4.40804,-0.50763 5.91429,-0.1879 1.66631,0.35371 3.39151,1.05617 4.76399,1.93978 1.79688,1.15682 1.79837,1.16225 0.63986,2.32076 l -0.98804,0.98804 v -1.09763 c 0,-0.60369 -0.0811,-1.24916 -0.18022,-1.43436 -0.2345,-0.43818 -0.97188,-0.43819 -1.20638,-1e-5 -0.23435,0.43788 -0.23435,4.28549 0,4.72336 0.16493,0.30819 0.38584,0.33677 2.60525,0.33674 2.24685,10e-6 2.43872,-0.0256 2.61136,-0.34817 0.13241,-0.24738 0.13239,-0.44899 0,-0.69638 -0.16151,-0.3018 -0.36448,-0.34821 -1.52397,-0.34817 h -1.33763 l 1.02783,-1.03915 c 1.19284,-1.20557 1.15684,-1.21369 2.28061,0.51925 4.36878,6.73693 1.93022,15.58483 -5.29801,19.22294 -2.24104,1.12796 -5.28762,1.65207 -7.59659,1.30685 z"
       id="path4" /><g
       style="fill:none"
       id="g4-8-2"
       transform="matrix(0.49890312,-0.49890312,0.49890312,0.49890312,144.52709,185.54122)"><g
         id="SVGRepo_bgCarrier-5-4-0"
         stroke-width="0" /><g
         id="SVGRepo_tracerCarrier-92-5-6"
         stroke-linecap="round"
         stroke-linejoin="round" /><g
         id="SVGRepo_iconCarrier-2-0-1"><path
           d="M 12,4 V 20 M 12,4 8,8 m 4,-4 4,4"
           stroke="#000000"
           stroke-width="1.8"
           stroke-linecap="round"
           stroke-linejoin="round"
           id="path1-36-5" /></g></g><g
       style="fill:none"
       id="g4-8-2-5"
       transform="matrix(-0.49890312,-0.49890312,0.49890312,-0.49890312,156.50102,177.3149)"><g
         id="SVGRepo_bgCarrier-5-4-0-6"
         stroke-width="0" /><g
         id="SVGRepo_tracerCarrier-92-5-6-9"
         stroke-linecap="round"
         stroke-linejoin="round" /><g
         id="SVGRepo_iconCarrier-2-0-1-3"><path
           d="M 12,4 V 20 M 12,4 8,8 m 4,-4 4,4"
           stroke="#000000"
           stroke-width="1.8"
           stroke-linecap="round"
           stroke-linejoin="round"
           id="path1-36-5-7" /></g></g><g
       style="fill:none"
       id="g4-8-2-5-4"
       transform="matrix(0.49890312,0.49890312,-0.49890312,0.49890312,136.28222,173.56755)"><g
         id="SVGRepo_bgCarrier-5-4-0-6-7"
         stroke-width="0" /><g
         id="SVGRepo_tracerCarrier-92-5-6-9-4"
         stroke-linecap="round"
         stroke-linejoin="round" /><g
         id="SVGRepo_iconCarrier-2-0-1-3-4"><path
           d="M 12,4 V 20 M 12,4 8,8 m 4,-4 4,4"
           stroke="#000000"
           stroke-width="1.8"
           stroke-linecap="round"
           stroke-linejoin="round"
           id="path1-36-5-7-3" /></g></g><g
       style="fill:none"
       id="g4-8-2-5-4-8"
       transform="matrix(-0.49890312,0.49890312,-0.49890312,-0.49890312,148.2559,165.34122)"><g
         id="SVGRepo_bgCarrier-5-4-0-6-7-8"
         stroke-width="0" /><g
         id="SVGRepo_tracerCarrier-92-5-6-9-4-4"
         stroke-linecap="round"
         stroke-linejoin="round" /><g
         id="SVGRepo_iconCarrier-2-0-1-3-4-3"><path
           d="M 12,4 V 20 M 12,4 8,8 m 4,-4 4,4"
           stroke="#000000"
           stroke-width="1.8"
           stroke-linecap="round"
           stroke-linejoin="round"
           id="path1-36-5-7-3-1" /></g></g></g></svg>
