<?xml version="1.0" encoding="UTF-8" standalone="no"?>
<!-- Created with Inkscape (http://www.inkscape.org/) -->

<svg
   width="20.994967pt"
   height="36.236725pt"
   viewBox="0 0 7.4065575 12.783511"
   version="1.1"
   id="svg5"
   xml:space="preserve"
   xmlns="http://www.w3.org/2000/svg"
   xmlns:svg="http://www.w3.org/2000/svg"><defs
     id="defs2" /><g
     id="layer1"
     transform="translate(0.17539723,5.4594567)"><g
       id="g20941"><path
         style="fill:#ffffff;fill-opacity:1;stroke:#000000;stroke-width:0.350999;stroke-linecap:round;stroke-linejoin:miter;stroke-miterlimit:8;stroke-dasharray:none"
         d="m 1.0226778e-4,-1.7562892 -3.09e-9,4.9388888 C 2.0778148,5.2449384 2.3519542,5.7696365 3.5278801,7.063155 4.703806,5.7696365 5.2556964,4.96464 7.0556577,3.1825996 l 10e-8,-4.9388888"
         id="path20933" /><path
         style="fill:#ffffff;fill-opacity:1;stroke:#000000;stroke-width:0.350999;stroke-linecap:round;stroke-linejoin:miter;stroke-miterlimit:8;stroke-dasharray:none"
         id="path20937"
         d="M 1.0382376e-4,-1.7595879 A 3.5277777,3.5277777 0 0 1 1.7876678,-4.8249823 a 3.5277777,3.5277777 0 0 1 3.5483048,0.039499 3.5277777,3.5277777 0 0 1 1.7188827,3.1044274" /><path
         d="m 3.1174036,-3.6278602 c -0.035334,0.085522 -0.1696043,0.4323624 -0.289741,0.7697004 -0.1201364,0.3420891 -0.2473398,0.6461681 -0.2756072,0.6841781 -0.042401,0.047512 -0.1130695,-0.085522 -0.2261393,-0.3848502 -0.1272034,-0.361094 -0.190805,-0.4656213 -0.3038745,-0.4893774 -0.1484042,-0.033259 -0.3957439,0.1187809 -0.3957439,0.242313 0,0.033259 -0.063602,0.2043033 -0.141337,0.3753478 l -0.148404,0.3135816 H 0.71467382 c -0.67135112,0 -0.83388883,0.052264 -0.7490866,0.237562 0.04240136,0.090274 0.09893602,0.095025 0.89042344,0.095025 H 1.7040332 l 0.1130696,-0.1805469 c 0.1272032,-0.199552 0.1201364,-0.2138057 0.3250752,0.3800989 0.1342702,0.3705966 0.1837381,0.441865 0.3038746,0.4561188 0.077736,0.0095 0.1837384,-0.014254 0.2261393,-0.052264 0.049467,-0.03801 0.2049388,-0.380099 0.3462758,-0.7601979 0.1413372,-0.3848502 0.2685405,-0.6889294 0.2897409,-0.679427 0.028267,0.023756 0.1413372,0.5606461 0.3321421,1.5964158 0.1272034,0.67467568 0.1908051,0.80771033 0.3816102,0.80771033 0.2049384,0 0.2614735,-0.0760198 0.5017464,-0.77445169 C 4.6438438,-1.3472664 4.7710471,-1.641843 4.7993146,-1.641843 c 0.028267,0 0.098936,0.090273 0.1413368,0.1995518 0.1130697,0.2518157 0.1978722,0.3230842 0.3745435,0.3230842 0.098936,0 0.1908047,-0.085522 0.3533428,-0.3325866 L 5.88761,-1.7843802 h 0.586549 c 0.5300134,0 0.5865483,-0.0095 0.6289499,-0.095025 0.091869,-0.1900492 -0.070669,-0.2375617 -0.8197552,-0.2375617 H 5.5837352 l -0.1342705,0.1472884 c -0.1484036,0.1662933 -0.1554705,0.161542 -0.325075,-0.1948007 -0.1484036,-0.3088304 -0.2190724,-0.380099 -0.3957436,-0.380099 -0.1696044,0 -0.2261393,0.080771 -0.4169444,0.6366657 -0.091869,0.2850743 -0.1766713,0.4466163 -0.2120056,0.4038552 C 4.0714287,-1.5420673 3.9936934,-1.8604 3.9300917,-2.2119917 3.7604873,-3.081468 3.61915,-3.6753727 3.5696822,-3.7323875 c -0.0212,-0.028508 -0.1201364,-0.047512 -0.2120055,-0.047512 -0.1272033,0 -0.1837383,0.03801 -0.2402731,0.1520393 z"
         id="path1"
         style="fill:#000000;stroke:none;stroke-width:0.00579449" /></g></g></svg>
