<?xml version="1.0" encoding="UTF-8"?><svg id="a" xmlns="http://www.w3.org/2000/svg" width="195.4" height="195.48" xmlns:xlink="http://www.w3.org/1999/xlink" viewBox="0 0 195.4 195.48"><defs><clipPath id="b"><path d="M104.87,45.04c10.84,1.46,20.65,6.19,28.4,13.15l3.15-2.22,10.52-7.42-7.42,10.52-2.22,3.15c6.97,7.75,11.69,17.55,13.16,28.4l11.01,2.59,19.5,4.59h-39.47c0-21.73-15.84-39.77-36.6-43.19v-9.56h0Zm-7.18,8.97c-21.73,0-39.77,15.84-43.19,36.6h-9.56c1.46-10.84,6.19-20.65,13.16-28.4l-2.22-3.15-7.42-10.52,10.52,7.42,3.15,2.22c7.75-6.97,17.55-11.69,28.4-13.15l2.59-11.01,4.59-19.5V54h0Zm83.25,43.78h0Zm-30.5,7.18c-1.46,10.84-6.19,20.65-13.15,28.4l2.22,3.15,7.42,10.52-10.52-7.42-3.15-2.22c-7.75,6.97-17.55,11.69-28.4,13.16l-2.59,11.01-4.59,19.5h0v-39.47h0c21.73,0,39.77-15.84,43.19-36.6h9.56Zm-59.92,45.57c-10.84-1.46-20.65-6.19-28.4-13.15l-3.15,2.22-10.52,7.42,7.42-10.52,2.22-3.15c-6.97-7.75-11.69-17.55-13.15-28.4l-11.01-2.59-19.5-4.59h0s39.47,0,39.47,0h0c0,21.73,15.84,39.77,36.6,43.19v9.56Z" style="clip-rule:evenodd; fill:none;"/></clipPath></defs><g style="clip-path:url(#b);"><rect x="78.48" y="95.31" width=".41" height="161.82" transform="translate(-111.1 211.25) rotate(-76.4)" style="fill:#00b2b7;"/><rect x="78.15" y="94.91" width="1.27" height="161.82" transform="translate(-110.64 211.01) rotate(-76.39)" style="fill:#00b2b7;"/><rect x="78.35" y="94.08" width="1.27" height="161.82" transform="translate(-109.69 210.54) rotate(-76.38)" style="fill:#00b2b7;"/><rect x="78.55" y="93.26" width="1.27" height="161.82" transform="translate(-108.74 210.12) rotate(-76.38)" style="fill:#0dafb6;"/><rect x="78.75" y="92.44" width="1.27" height="161.82" transform="translate(-107.79 209.66) rotate(-76.38)" style="fill:#00aeb6;"/><rect x="78.95" y="91.62" width="1.27" height="161.82" transform="translate(-106.84 209.23) rotate(-76.37)" style="fill:#00aeb6;"/><rect x="79.14" y="90.8" width="1.27" height="161.82" transform="translate(-105.88 208.82) rotate(-76.38)" style="fill:#00adb5;"/><rect x="79.34" y="89.98" width="1.27" height="161.82" transform="translate(-104.94 208.36) rotate(-76.38)" style="fill:#00adb5;"/><rect x="79.54" y="89.15" width="1.27" height="161.82" transform="translate(-103.98 207.94) rotate(-76.38)" style="fill:#05acb4;"/><rect x="79.74" y="88.33" width="1.27" height="161.82" transform="translate(-103.03 207.52) rotate(-76.38)" style="fill:#05acb4;"/><rect x="79.94" y="87.51" width="1.27" height="161.82" transform="translate(-102.08 207.07) rotate(-76.38)" style="fill:#05acb4;"/><rect x="80.14" y="86.69" width="1.27" height="161.82" transform="translate(-101.13 206.66) rotate(-76.39)" style="fill:#05acb4;"/><rect x="80.34" y="85.87" width="1.27" height="161.82" transform="translate(-100.18 206.21) rotate(-76.38)" style="fill:#14a9b1;"/><rect x="80.54" y="85.04" width="1.27" height="161.82" transform="translate(-99.23 205.75) rotate(-76.38)" style="fill:#12a9b3;"/><rect x="80.74" y="84.22" width="1.27" height="161.82" transform="translate(-98.27 205.36) rotate(-76.39)" style="fill:#14a9b1;"/><rect x="80.94" y="83.4" width="1.27" height="161.82" transform="translate(-97.33 204.87) rotate(-76.37)" style="fill:#18a8b0;"/><rect x="81.14" y="82.58" width="1.27" height="161.82" transform="translate(-96.38 204.45) rotate(-76.38)" style="fill:#1aa8af;"/><rect x="81.34" y="81.76" width="1.27" height="161.82" transform="translate(-95.42 204.04) rotate(-76.38)" style="fill:#0fa6b0;"/><rect x="81.53" y="80.94" width="1.27" height="161.82" transform="translate(-94.48 203.56) rotate(-76.37)" style="fill:#0fa6b0;"/><rect x="81.73" y="80.11" width="1.27" height="161.82" transform="translate(-93.53 203.14) rotate(-76.37)" style="fill:#0fa6b0;"/><rect x="81.93" y="79.29" width="1.27" height="161.82" transform="translate(-92.57 202.74) rotate(-76.38)" style="fill:#14a5af;"/><rect x="82.13" y="78.47" width="1.27" height="161.82" transform="translate(-91.63 202.26) rotate(-76.37)" style="fill:#16a5ad;"/><rect x="82.33" y="77.65" width="1.27" height="161.82" transform="translate(-90.66 201.88) rotate(-76.39)" style="fill:#18a4ae;"/><rect x="82.53" y="76.83" width="1.27" height="161.82" transform="translate(-89.72 201.43) rotate(-76.38)" style="fill:#1aa4ad;"/><rect x="82.73" y="76" width="1.27" height="161.82" transform="translate(-88.77 200.96) rotate(-76.37)" style="fill:#11a2ac;"/><rect x="82.93" y="75.18" width="1.27" height="161.82" transform="translate(-87.81 200.57) rotate(-76.39)" style="fill:#11a2ac;"/><rect x="83.13" y="74.36" width="1.27" height="161.82" transform="translate(-86.87 200.09) rotate(-76.37)" style="fill:#11a2ac;"/><rect x="83.33" y="73.54" width="1.27" height="161.82" transform="translate(-85.92 199.67) rotate(-76.38)" style="fill:#11a2ac;"/><rect x="83.53" y="72.72" width="1.27" height="161.82" transform="translate(-84.96 199.26) rotate(-76.38)" style="fill:#16a1ab;"/><rect x="83.72" y="71.9" width="1.27" height="161.82" transform="translate(-84.02 198.8) rotate(-76.38)" style="fill:#1a9faa;"/><rect x="83.92" y="71.07" width="1.27" height="161.82" transform="translate(-83.07 198.36) rotate(-76.38)" style="fill:#1a9faa;"/><rect x="84.12" y="70.25" width="1.27" height="161.82" transform="translate(-82.1 197.96) rotate(-76.39)" style="fill:#1b9fa9;"/><rect x="84.32" y="69.43" width="1.27" height="161.82" transform="translate(-81.17 197.47) rotate(-76.37)" style="fill:#1b9fa9;"/><rect x="84.52" y="68.61" width="1.27" height="161.82" transform="translate(-80.2 197.09) rotate(-76.39)" style="fill:#129eaa;"/><rect x="84.72" y="67.79" width="1.27" height="161.82" transform="translate(-79.27 196.61) rotate(-76.37)" style="fill:#139ea8;"/><rect x="84.92" y="66.96" width="1.27" height="161.82" transform="translate(-78.31 196.19) rotate(-76.38)" style="fill:#179ca7;"/><rect x="85.12" y="66.14" width="1.27" height="161.82" transform="translate(-77.35 195.78) rotate(-76.39)" style="fill:#199ca6;"/><rect x="85.32" y="65.32" width="1.27" height="161.82" transform="translate(-76.41 195.32) rotate(-76.37)" style="fill:#179ca7;"/><rect x="85.52" y="64.5" width="1.27" height="161.82" transform="translate(-75.46 194.87) rotate(-76.37)" style="fill:#1b9ba7;"/><rect x="85.72" y="63.68" width="1.27" height="161.82" transform="translate(-74.49 194.5) rotate(-76.39)" style="fill:#1b9ba7;"/><rect x="85.92" y="62.86" width="1.27" height="161.82" transform="translate(-73.56 194) rotate(-76.37)" style="fill:#1599a4;"/><rect x="86.11" y="62.03" width="1.27" height="161.82" transform="translate(-72.6 193.61) rotate(-76.39)" style="fill:#1599a4;"/><rect x="86.31" y="61.21" width="1.27" height="161.82" transform="translate(-71.64 193.18) rotate(-76.39)" style="fill:#1998a4;"/><rect x="86.51" y="60.39" width="1.27" height="161.82" transform="translate(-70.7 192.71) rotate(-76.38)" style="fill:#1998a4;"/><rect x="86.71" y="59.57" width="1.27" height="161.82" transform="translate(-69.74 192.31) rotate(-76.39)" style="fill:#1c97a3;"/><rect x="86.91" y="58.75" width="1.27" height="161.82" transform="translate(-68.8 191.85) rotate(-76.38)" style="fill:#1c97a3;"/><rect x="87.11" y="57.92" width="1.27" height="161.82" transform="translate(-67.86 191.39) rotate(-76.37)" style="fill:#1c97a3;"/><rect x="87.31" y="57.1" width="1.27" height="161.82" transform="translate(-66.89 191.02) rotate(-76.39)" style="fill:#1f96a2;"/><rect x="87.51" y="56.28" width="1.27" height="161.82" transform="translate(-65.95 190.54) rotate(-76.38)" style="fill:#1f96a2;"/><rect x="87.71" y="55.46" width="1.27" height="161.82" transform="translate(-65 190.1) rotate(-76.38)" style="fill:#1f96a2;"/><rect x="87.91" y="54.64" width="1.27" height="161.82" transform="translate(-64.04 189.7) rotate(-76.39)" style="fill:#1f96a2;"/><rect x="88.11" y="53.81" width="1.27" height="161.82" transform="translate(-63.09 189.24) rotate(-76.38)" style="fill:#1a94a0;"/><rect x="88.3" y="52.99" width="1.27" height="161.82" transform="translate(-62.14 188.82) rotate(-76.38)" style="fill:#1a94a0;"/><rect x="88.5" y="52.17" width="1.27" height="161.82" transform="translate(-61.18 188.41) rotate(-76.39)" style="fill:#1d939f;"/><rect x="88.7" y="51.35" width="1.27" height="161.82" transform="translate(-60.25 187.92) rotate(-76.37)" style="fill:#17919e;"/><rect x="88.9" y="50.53" width="1.27" height="161.82" transform="translate(-59.29 187.51) rotate(-76.38)" style="fill:#13929f;"/><rect x="89.1" y="49.71" width="1.27" height="161.82" transform="translate(-58.34 187.06) rotate(-76.37)" style="fill:#1b909e;"/><rect x="89.3" y="48.88" width="1.27" height="161.82" transform="translate(-57.39 186.62) rotate(-76.37)" style="fill:#1b909e;"/><rect x="89.5" y="48.06" width="1.27" height="161.82" transform="translate(-56.43 186.21) rotate(-76.38)" style="fill:#1b909e;"/><rect x="89.7" y="47.24" width="1.27" height="161.82" transform="translate(-55.48 185.77) rotate(-76.38)" style="fill:#1b909c;"/><rect x="89.9" y="46.42" width="1.27" height="161.82" transform="translate(-54.54 185.31) rotate(-76.37)" style="fill:#1e8e9d;"/><rect x="90.1" y="45.6" width="1.27" height="161.82" transform="translate(-53.58 184.91) rotate(-76.39)" style="fill:#1e8e9c;"/><rect x="90.3" y="44.77" width="1.27" height="161.82" transform="translate(-52.64 184.45) rotate(-76.38)" style="fill:#218d9b;"/><rect x="90.49" y="43.95" width="1.27" height="161.82" transform="translate(-51.68 184.04) rotate(-76.38)" style="fill:#208d9c;"/><rect x="90.69" y="43.13" width="1.27" height="161.82" transform="translate(-50.72 183.61) rotate(-76.39)" style="fill:#218d9b;"/><rect x="90.89" y="42.31" width="1.27" height="161.82" transform="translate(-49.78 183.15) rotate(-76.38)" style="fill:#1b8b9c;"/><rect x="91.09" y="41.49" width="1.27" height="161.82" transform="translate(-48.82 182.73) rotate(-76.38)" style="fill:#1d8b99;"/><rect x="91.29" y="40.67" width="1.27" height="161.82" transform="translate(-47.88 182.28) rotate(-76.38)" style="fill:#1f8a99;"/><rect x="91.49" y="39.84" width="1.27" height="161.82" transform="translate(-46.93 181.84) rotate(-76.38)" style="fill:#208a98;"/><rect x="91.69" y="39.02" width="1.27" height="161.82" transform="translate(-45.98 181.42) rotate(-76.38)" style="fill:#168a99;"/><rect x="91.89" y="38.2" width="1.27" height="161.82" transform="translate(-45.03 180.97) rotate(-76.38)" style="fill:#1a8897;"/><rect x="92.09" y="37.38" width="1.27" height="161.82" transform="translate(-44.06 180.57) rotate(-76.39)" style="fill:#1a8897;"/><rect x="92.29" y="36.56" width="1.27" height="161.82" transform="translate(-43.12 180.13) rotate(-76.39)" style="fill:#1d8797;"/><rect x="92.49" y="35.73" width="1.27" height="161.82" transform="translate(-42.18 179.66) rotate(-76.37)" style="fill:#1d8797;"/><rect x="92.69" y="34.91" width="1.27" height="161.82" transform="translate(-41.21 179.26) rotate(-76.39)" style="fill:#208696;"/><rect x="92.88" y="34.09" width="1.27" height="161.82" transform="translate(-40.28 178.79) rotate(-76.37)" style="fill:#208696;"/><rect x="93.08" y="33.27" width="1.27" height="161.82" transform="translate(-39.32 178.37) rotate(-76.38)" style="fill:#208696;"/><rect x="93.28" y="32.45" width="1.27" height="161.82" transform="translate(-38.36 177.95) rotate(-76.38)" style="fill:#208696;"/><rect x="93.48" y="31.63" width="1.27" height="161.82" transform="translate(-37.43 177.48) rotate(-76.37)" style="fill:#228595;"/><rect x="93.68" y="30.8" width="1.27" height="161.82" transform="translate(-36.47 177.06) rotate(-76.38)" style="fill:#1d8395;"/><rect x="93.88" y="29.98" width="1.27" height="161.82" transform="translate(-35.51 176.65) rotate(-76.38)" style="fill:#1d8395;"/><rect x="94.08" y="29.16" width="1.27" height="161.82" transform="translate(-34.57 176.18) rotate(-76.37)" style="fill:#1e8393;"/><rect x="94.28" y="28.34" width="1.27" height="161.82" transform="translate(-33.6 175.78) rotate(-76.39)" style="fill:#1e8393;"/><rect x="94.48" y="27.52" width="1.27" height="161.82" transform="translate(-32.66 175.34) rotate(-76.38)" style="fill:#238192;"/><rect x="94.68" y="26.69" width="1.27" height="161.82" transform="translate(-31.71 174.9) rotate(-76.38)" style="fill:#238192;"/><rect x="94.88" y="25.87" width="1.27" height="161.82" transform="translate(-30.75 174.48) rotate(-76.39)" style="fill:#1c8091;"/><rect x="95.07" y="25.05" width="1.27" height="161.82" transform="translate(-29.82 174.01) rotate(-76.37)" style="fill:#1e7f91;"/><rect x="95.27" y="24.23" width="1.27" height="161.82" transform="translate(-28.86 173.58) rotate(-76.37)" style="fill:#1f7f90;"/><rect x="95.47" y="23.41" width="1.27" height="161.82" transform="translate(-27.9 173.18) rotate(-76.39)" style="fill:#217e8f;"/><rect x="95.67" y="22.59" width="1.27" height="161.82" transform="translate(-26.97 172.7) rotate(-76.37)" style="fill:#217e8f;"/><rect x="95.87" y="21.76" width="1.27" height="161.82" transform="translate(-26.01 172.29) rotate(-76.38)" style="fill:#237d8f;"/><rect x="96.07" y="20.94" width="1.27" height="161.82" transform="translate(-25.05 171.87) rotate(-76.39)" style="fill:#1d7c8d;"/><rect x="96.27" y="20.12" width="1.27" height="161.82" transform="translate(-24.11 171.41) rotate(-76.37)" style="fill:#1f7b8e;"/><rect x="96.47" y="19.3" width="1.27" height="161.82" transform="translate(-23.14 171) rotate(-76.39)" style="fill:#1f7b8e;"/><rect x="96.67" y="18.48" width="1.27" height="161.82" transform="translate(-22.19 170.56) rotate(-76.39)" style="fill:#207b8d;"/><rect x="96.87" y="17.65" width="1.27" height="161.82" transform="translate(-21.26 170.1) rotate(-76.37)" style="fill:#217a8d;"/><rect x="97.07" y="16.83" width="1.27" height="161.82" transform="translate(-20.28 169.7) rotate(-76.39)" style="fill:#227a8c;"/><rect x="97.27" y="16.01" width="1.27" height="161.82" transform="translate(-19.36 169.22) rotate(-76.37)" style="fill:#24798b;"/><rect x="97.46" y="15.19" width="1.27" height="161.82" transform="translate(-18.41 168.79) rotate(-76.37)" style="fill:#24798a;"/><rect x="97.66" y="14.37" width="1.27" height="161.82" transform="translate(-17.43 168.39) rotate(-76.39)" style="fill:#1f778b;"/><rect x="97.86" y="13.55" width="1.27" height="161.82" transform="translate(-16.5 167.93) rotate(-76.37)" style="fill:#207789;"/><rect x="98.06" y="12.72" width="1.27" height="161.82" transform="translate(-15.54 167.51) rotate(-76.38)" style="fill:#207789;"/><rect x="98.26" y="11.9" width="1.27" height="161.82" transform="translate(-14.58 167.09) rotate(-76.39)" style="fill:#207789;"/><rect x="98.46" y="11.08" width="1.27" height="161.82" transform="translate(-13.65 166.62) rotate(-76.37)" style="fill:#1b7689;"/><rect x="98.66" y="10.26" width="1.27" height="161.82" transform="translate(-12.68 166.23) rotate(-76.39)" style="fill:#1d7588;"/><rect x="98.86" y="9.44" width="1.27" height="161.82" transform="translate(-11.75 165.76) rotate(-76.37)" style="fill:#1d7588;"/><rect x="99.06" y="8.61" width="1.27" height="161.82" transform="translate(-10.8 165.32) rotate(-76.37)" style="fill:#1e7587;"/><rect x="99.26" y="7.79" width="1.27" height="161.82" transform="translate(-9.83 164.91) rotate(-76.39)" style="fill:#1e7587;"/><rect x="99.46" y="6.97" width="1.27" height="161.82" transform="translate(-8.89 164.46) rotate(-76.38)" style="fill:#207388;"/><rect x="99.65" y="6.15" width="1.27" height="161.82" transform="translate(-7.95 164.01) rotate(-76.37)" style="fill:#207386;"/><rect x="99.85" y="5.33" width="1.27" height="161.82" transform="translate(-6.97 163.62) rotate(-76.39)" style="fill:#227287;"/><rect x="100.05" y="4.51" width="1.27" height="161.82" transform="translate(-6.04 163.15) rotate(-76.38)" style="fill:#1c7286;"/><rect x="100.25" y="3.68" width="1.27" height="161.82" transform="translate(-5.08 162.73) rotate(-76.38)" style="fill:#1c7286;"/><rect x="100.45" y="2.86" width="1.27" height="161.82" transform="translate(-4.12 162.3) rotate(-76.39)" style="fill:#1a6f85;"/><rect x="100.65" y="2.04" width="1.27" height="161.82" transform="translate(-3.19 161.84) rotate(-76.38)" style="fill:#1a6f85;"/><rect x="100.85" y="1.22" width="1.27" height="161.82" transform="translate(-2.23 161.43) rotate(-76.38)" style="fill:#1a6f84;"/><rect x="101.05" y=".4" width="1.27" height="161.82" transform="translate(-1.29 160.98) rotate(-76.38)" style="fill:#1a6f84;"/><rect x="101.25" y="-.43" width="1.27" height="161.82" transform="translate(-.34 160.53) rotate(-76.37)" style="fill:#1a6e82;"/><rect x="101.45" y="-1.25" width="1.27" height="161.82" transform="translate(.63 160.12) rotate(-76.39)" style="fill:#1a6e82;"/><rect x="101.65" y="-2.07" width="1.27" height="161.82" transform="translate(1.56 159.67) rotate(-76.37)" style="fill:#1e6c80;"/><rect x="101.84" y="-2.89" width="1.27" height="161.82" transform="translate(2.52 159.24) rotate(-76.38)" style="fill:#1e6c80;"/><rect x="102.04" y="-3.71" width="1.27" height="161.82" transform="translate(3.49 158.82) rotate(-76.39)" style="fill:#1e6c80;"/><rect x="102.24" y="-4.53" width="1.27" height="161.82" transform="translate(4.42 158.37) rotate(-76.38)" style="fill:#206b80;"/><rect x="102.44" y="-5.36" width="1.27" height="161.82" transform="translate(5.38 157.95) rotate(-76.38)" style="fill:#206b80;"/><rect x="102.64" y="-6.18" width="1.27" height="161.82" transform="translate(6.34 157.52) rotate(-76.39)" style="fill:#19697f;"/><rect x="102.84" y="-7" width="1.27" height="161.82" transform="translate(7.27 157.06) rotate(-76.38)" style="fill:#19697f;"/><rect x="103.04" y="-7.82" width="1.27" height="161.82" transform="translate(8.23 156.64) rotate(-76.38)" style="fill:#1c687d;"/><rect x="103.24" y="-8.64" width="1.27" height="161.82" transform="translate(9.17 156.19) rotate(-76.37)" style="fill:#16677d;"/><rect x="103.44" y="-9.47" width="1.27" height="161.82" transform="translate(10.12 155.76) rotate(-76.37)" style="fill:#17677c;"/><rect x="103.64" y="-10.29" width="1.27" height="161.82" transform="translate(11.09 155.34) rotate(-76.38)" style="fill:#16677d;"/><rect x="103.84" y="-11.11" width="1.27" height="161.82" transform="translate(12.03 154.89) rotate(-76.38)" style="fill:#17677c;"/><rect x="104.04" y="-11.93" width="1.27" height="161.82" transform="translate(12.99 154.47) rotate(-76.39)" style="fill:#1b657b;"/><rect x="104.23" y="-12.75" width="1.27" height="161.82" transform="translate(13.94 154.03) rotate(-76.38)" style="fill:#19667c;"/><rect x="104.43" y="-13.57" width="1.27" height="161.82" transform="translate(14.88 153.58) rotate(-76.37)" style="fill:#1b647a;"/><rect x="104.63" y="-14.4" width="1.27" height="161.82" transform="translate(15.85 153.17) rotate(-76.39)" style="fill:#1c6479;"/><rect x="104.83" y="-15.22" width="1.27" height="161.82" transform="translate(16.78 152.71) rotate(-76.37)" style="fill:#1d637a;"/><rect x="105.03" y="-16.04" width="1.27" height="161.82" transform="translate(17.73 152.28) rotate(-76.37)" style="fill:#1e6178;"/><rect x="105.23" y="-16.86" width="1.27" height="161.82" transform="translate(18.7 151.87) rotate(-76.39)" style="fill:#1e6178;"/><rect x="105.43" y="-17.68" width="1.27" height="161.82" transform="translate(19.63 151.41) rotate(-76.37)" style="fill:#196179;"/><rect x="105.63" y="-18.51" width="1.27" height="161.82" transform="translate(20.59 150.98) rotate(-76.38)" style="fill:#196077;"/><rect x="105.83" y="-19.33" width="1.27" height="161.82" transform="translate(21.55 150.56) rotate(-76.38)" style="fill:#186078;"/><rect x="106.03" y="-20.15" width="1.27" height="161.82" transform="translate(22.49 150.11) rotate(-76.38)" style="fill:#196077;"/><rect x="106.23" y="-20.97" width="1.27" height="161.82" transform="translate(23.46 149.69) rotate(-76.39)" style="fill:#1a5f77;"/><rect x="106.42" y="-21.79" width="1.27" height="161.82" transform="translate(24.4 149.25) rotate(-76.38)" style="fill:#1b5f75;"/><rect x="106.62" y="-22.61" width="1.27" height="161.82" transform="translate(25.33 148.8) rotate(-76.37)" style="fill:#1d5e76;"/><rect x="106.82" y="-23.44" width="1.27" height="161.82" transform="translate(26.32 148.39) rotate(-76.39)" style="fill:#165d75;"/><rect x="107.02" y="-24.26" width="1.27" height="161.82" transform="translate(27.23 147.93) rotate(-76.37)" style="fill:#165d75;"/><rect x="107.22" y="-25.08" width="1.27" height="161.82" transform="translate(28.2 147.51) rotate(-76.38)" style="fill:#195c73;"/><rect x="107.42" y="-25.9" width="1.27" height="161.82" transform="translate(29.16 147.08) rotate(-76.39)" style="fill:#195c73;"/><rect x="107.62" y="-26.72" width="1.27" height="161.82" transform="translate(30.09 146.63) rotate(-76.38)" style="fill:#195c73;"/><rect x="107.82" y="-27.55" width="1.27" height="161.82" transform="translate(31.04 146.19) rotate(-76.37)" style="fill:#195c73;"/><rect x="108.02" y="-28.37" width="1.27" height="161.82" transform="translate(32.02 145.78) rotate(-76.39)" style="fill:#1b5a72;"/><rect x="108.22" y="-29.19" width="1.27" height="161.82" transform="translate(32.94 145.32) rotate(-76.37)" style="fill:#1c5971;"/><rect x="108.42" y="-30.01" width="1.27" height="161.82" transform="translate(33.93 144.91) rotate(-76.39)" style="fill:#1c5971;"/><rect x="108.62" y="-30.83" width="1.27" height="161.82" transform="translate(34.87 144.47) rotate(-76.39)" style="fill:#165871;"/><rect x="108.81" y="-31.65" width="1.27" height="161.82" transform="translate(35.8 144.02) rotate(-76.37)" style="fill:#165871;"/><rect x="109.01" y="-32.48" width="1.27" height="161.82" transform="translate(36.77 143.6) rotate(-76.39)" style="fill:#185770;"/><rect x="109.21" y="-33.3" width="1.27" height="161.82" transform="translate(37.7 143.15) rotate(-76.38)" style="fill:#185770;"/><rect x="109.41" y="-34.12" width="1.27" height="161.82" transform="translate(38.64 142.71) rotate(-76.37)" style="fill:#1a556f;"/><rect x="109.61" y="-34.94" width="1.27" height="161.82" transform="translate(39.63 142.3) rotate(-76.39)" style="fill:#1a556f;"/><rect x="109.81" y="-35.76" width="1.27" height="161.82" transform="translate(40.55 141.84) rotate(-76.37)" style="fill:#1a556e;"/><rect x="110.01" y="-36.59" width="1.27" height="161.82" transform="translate(41.52 141.42) rotate(-76.38)" style="fill:#18536e;"/><rect x="110.21" y="-37.41" width="1.27" height="161.82" transform="translate(42.48 140.99) rotate(-76.39)" style="fill:#16536c;"/><rect x="110.41" y="-38.23" width="1.27" height="161.82" transform="translate(43.41 140.54) rotate(-76.38)" style="fill:#18526c;"/><rect x="110.61" y="-39.05" width="1.27" height="161.82" transform="translate(44.37 140.12) rotate(-76.38)" style="fill:#18526b;"/><rect x="110.81" y="-39.87" width="1.27" height="161.82" transform="translate(45.32 139.68) rotate(-76.38)" style="fill:#1a516b;"/><rect x="111" y="-40.69" width="1.27" height="161.82" transform="translate(46.25 139.23) rotate(-76.37)" style="fill:#18516a;"/><rect x="111.2" y="-41.52" width="1.27" height="161.82" transform="translate(47.23 138.82) rotate(-76.39)" style="fill:#174f69;"/><rect x="111.4" y="-42.34" width="1.27" height="161.82" transform="translate(48.16 138.37) rotate(-76.37)" style="fill:#174f6a;"/><rect x="111.6" y="-43.16" width="1.27" height="161.82" transform="translate(49.11 137.93) rotate(-76.37)" style="fill:#164e68;"/><rect x="111.8" y="-43.98" width="1.27" height="161.82" transform="translate(50.09 137.51) rotate(-76.39)" style="fill:#184d67;"/><rect x="112" y="-44.8" width="1.27" height="161.82" transform="translate(51.01 137.07) rotate(-76.38)" style="fill:#184d67;"/><rect x="112.2" y="-45.63" width="1.27" height="161.82" transform="translate(51.97 136.64) rotate(-76.38)" style="fill:#1a4c67;"/><rect x="112.4" y="-46.45" width="1.27" height="161.82" transform="translate(52.94 136.21) rotate(-76.39)" style="fill:#1a4b66;"/><rect x="112.6" y="-47.27" width="1.27" height="161.82" transform="translate(53.86 135.76) rotate(-76.37)" style="fill:#1a4b66;"/><rect x="112.8" y="-48.09" width="1.27" height="161.82" transform="translate(54.83 135.34) rotate(-76.39)" style="fill:#1a4b64;"/><rect x="113" y="-48.91" width="1.27" height="161.82" transform="translate(55.76 134.89) rotate(-76.37)" style="fill:#174965;"/><rect x="113.2" y="-49.74" width="1.27" height="161.82" transform="translate(56.71 134.45) rotate(-76.37)" style="fill:#194863;"/><rect x="113.39" y="-50.56" width="1.27" height="161.82" transform="translate(57.68 134.03) rotate(-76.38)" style="fill:#194863;"/><rect x="113.59" y="-51.38" width="1.27" height="161.82" transform="translate(58.62 133.59) rotate(-76.38)" style="fill:#184762;"/><rect x="113.79" y="-52.2" width="1.27" height="161.82" transform="translate(59.56 133.15) rotate(-76.37)" style="fill:#184762;"/><rect x="113.99" y="-53.02" width="1.27" height="161.82" transform="translate(60.54 132.73) rotate(-76.39)" style="fill:#164660;"/><rect x="114.19" y="-53.84" width="1.27" height="161.82" transform="translate(61.47 132.28) rotate(-76.37)" style="fill:#164660;"/><rect x="114.39" y="-54.67" width="1.27" height="161.82" transform="translate(62.44 131.86) rotate(-76.39)" style="fill:#184460;"/><rect x="114.59" y="-55.49" width="1.27" height="161.82" transform="translate(63.4 131.43) rotate(-76.39)" style="fill:#184460;"/><rect x="114.79" y="-56.31" width="1.27" height="161.82" transform="translate(64.33 130.98) rotate(-76.38)" style="fill:#19435f;"/><rect x="114.99" y="-57.13" width="1.27" height="161.82" transform="translate(65.29 130.55) rotate(-76.38)" style="fill:#19435e;"/><rect x="115.19" y="-57.95" width="1.27" height="161.82" transform="translate(66.23 130.11) rotate(-76.37)" style="fill:#19435e;"/><rect x="115.39" y="-58.77" width="1.27" height="161.82" transform="translate(67.18 129.68) rotate(-76.38)" style="fill:#1b405d;"/><rect x="115.58" y="-59.6" width="1.27" height="161.82" transform="translate(68.15 129.25) rotate(-76.38)" style="fill:#1b405d;"/><rect x="115.78" y="-60.42" width="1.27" height="161.82" transform="translate(69.09 128.81) rotate(-76.38)" style="fill:#1b3f5b;"/><rect x="115.98" y="-61.24" width="1.27" height="161.82" transform="translate(70.05 128.38) rotate(-76.39)" style="fill:#1b3f5b;"/><rect x="116.54" y="-61.6" width=".33" height="161.82" transform="translate(70.5 128.2) rotate(-76.4)" style="fill:#1b3f5b;"/></g></svg>