<?xml version="1.0" encoding="UTF-8" standalone="no"?>
<!-- Created with Inkscape (http://www.inkscape.org/) -->

<svg
   width="15.460861mm"
   height="16.933334mm"
   viewBox="0 0 15.460861 16.933334"
   version="1.1"
   id="svg1"
   xml:space="preserve"
   xmlns:inkscape="http://www.inkscape.org/namespaces/inkscape"
   xmlns:sodipodi="http://sodipodi.sourceforge.net/DTD/sodipodi-0.dtd"
   xmlns="http://www.w3.org/2000/svg"
   xmlns:svg="http://www.w3.org/2000/svg"><sodipodi:namedview
     id="namedview1"
     pagecolor="#ffffff"
     bordercolor="#000000"
     borderopacity="0.25"
     inkscape:showpageshadow="2"
     inkscape:pageopacity="0.0"
     inkscape:pagecheckerboard="0"
     inkscape:deskcolor="#d1d1d1"
     inkscape:document-units="mm" /><defs
     id="defs1" /><g
     inkscape:label="Layer 1"
     inkscape:groupmode="layer"
     id="layer1"
     transform="translate(-97.255617,-140.03332)"><g
       style="fill:#000000"
       id="g11"
       transform="matrix(0,-0.03307292,0.03307292,0,96.519379,156.96666)"><g
         id="SVGRepo_bgCarrier"
         stroke-width="0"
         style="fill:#000000" /><g
         id="SVGRepo_tracerCarrier"
         stroke-linecap="round"
         stroke-linejoin="round" /><g
         id="SVGRepo_iconCarrier"
         style="fill:#000000"> <g
   id="g2"
   style="fill:#000000"> <g
   id="g1"
   style="fill:#000000"> <path
   d="M 423.61,362.515 263.838,256 423.611,149.485 c 7.672,-5.113 9.747,-15.494 4.622,-23.166 C 384.707,61.161 311.999,22.261 233.739,22.261 104.855,22.261 0,127.116 0,256 c 0,128.884 104.855,233.739 233.739,233.739 78.26,0 150.968,-38.9 194.493,-104.058 5.121,-7.667 3.054,-18.049 -4.622,-23.166 z M 233.739,456.348 C 123.267,456.348 33.391,366.472 33.391,256 c 0,-110.472 89.876,-200.348 200.348,-200.348 61.481,0 118.971,28.016 156.87,75.701 l -166.13,110.755 c -4.645,3.096 -7.435,8.31 -7.435,13.892 0,5.582 2.789,10.795 7.435,13.892 L 390.61,380.646 c -37.9,47.685 -95.39,75.702 -156.871,75.702 z"
   id="path1"
   style="fill:#000000" /> </g> </g> <g
   id="g4"
   style="fill:#000000"> <g
   id="g3"
   style="fill:#000000"> <circle
   cx="361.73901"
   cy="256"
   r="16.695999"
   id="circle2"
   style="fill:#000000" /> </g> </g> <g
   id="g6"
   style="fill:#000000"> <g
   id="g5"
   style="fill:#000000"> <circle
   cx="428.522"
   cy="256"
   r="16.695999"
   id="circle4"
   style="fill:#000000" /> </g> </g> <g
   id="g8"
   style="fill:#000000"> <g
   id="g7"
   style="fill:#000000"> <circle
   cx="495.30399"
   cy="256"
   r="16.695999"
   id="circle6"
   style="fill:#000000" /> </g> </g> <g
   id="g10"
   style="fill:#000000"> <g
   id="g9"
   style="fill:#000000"> <circle
   cx="283.82599"
   cy="122.435"
   r="16.695999"
   id="circle8"
   style="fill:#000000" /> </g> </g> <path
   style="fill:#ffffff;fill-rule:evenodd;stroke:#ff0000;stroke-width:0"
   d="m 391.00559,586.05096 c -8.78938,-1.09094 -16.62662,-7.07335 -20.03939,-15.29671 -1.31115,-3.15932 -1.85856,-6.04922 -1.8448,-9.73914 0.029,-7.78039 3.64585,-14.91977 9.97373,-19.68745 1.89221,-1.42566 5.14048,-3.13119 7.24994,-3.80663 9.24927,-2.96158 19.32318,-0.32297 25.93377,6.79269 l 1.24149,1.33634 -10.64553,7.11147 c -10.38195,6.9354 -10.65147,7.12865 -10.88524,7.8049 -0.21084,0.6099 -0.21084,0.77693 0,1.38683 0.23377,0.67625 0.50329,0.8695 10.88524,7.80489 l 10.64553,7.11148 -1.24149,1.33634 c -3.63213,3.90964 -8.68313,6.6864 -13.84961,7.61376 -1.76853,0.31744 -5.73395,0.44095 -7.42364,0.23123 z m 10.19897,-39.547 c 1.87338,-0.78275 1.43456,-3.83527 -0.57802,-4.0208 -0.98693,-0.091 -1.35316,0.0244 -1.89252,0.5963 -0.47896,0.50784 -0.54953,0.69176 -0.54953,1.43211 0,0.95739 0.26239,1.44094 1.03877,1.91436 0.61074,0.37241 1.21938,0.39638 1.9813,0.078 z"
   id="path11"
   transform="matrix(7.9999992,0,0,7.9999992,-2918.3809,-4234.0782)" /><path
   style="fill:#ffffff;fill-rule:evenodd;stroke:#ff0000;stroke-width:0"
   d="m 391.00559,586.0398 c -3.8166,-0.43891 -8.16248,-2.14545 -11.47459,-4.50584 -1.65458,-1.17914 -4.34947,-3.82138 -5.53497,-5.42684 -2.47343,-3.34963 -4.11083,-7.3304 -4.69777,-11.42098 -0.25817,-1.79925 -0.21273,-5.70581 0.0863,-7.42364 1.37926,-7.9223 6.20574,-14.52345 13.28121,-18.16465 5.42492,-2.79178 11.3891,-3.49533 17.31341,-2.04231 4.47082,1.09654 8.26788,3.25673 11.64844,6.62695 l 1.94061,1.93468 -10.34319,6.90205 c -5.68875,3.79614 -10.54044,7.10083 -10.78152,7.34377 -0.83261,0.83902 -0.79409,1.98703 0.0956,2.84935 0.29675,0.28763 5.13884,3.59076 10.7602,7.34029 l 10.22065,6.81734 -1.24133,1.33617 c -5.4365,5.85187 -13.30623,8.74984 -21.27309,7.83366 z m 10.19897,-39.53584 c 1.74441,-0.72886 1.5106,-3.47869 -0.33922,-3.98945 -1.46509,-0.40453 -2.68085,0.56619 -2.68085,2.1405 0,0.8054 0.30328,1.32244 1.03877,1.77092 0.61074,0.37241 1.21938,0.39638 1.9813,0.078 z"
   id="path12"
   transform="matrix(7.9999992,0,0,7.9999992,-2918.3809,-4234.0782)" /></g></g></g></svg>
