<?xml version="1.0" encoding="UTF-8"?><svg id="a" xmlns="http://www.w3.org/2000/svg" width="111.11" height="111.11" viewBox="0 0 111.11 111.11"><circle cx="55.56" cy="55.56" r="8.44" transform="translate(-22.97 58.08) rotate(-46.84)" style="fill:#18d11c; opacity:.8;"/><path d="M55.56,0C24.87,0,0,24.87,0,55.56s24.87,55.56,55.56,55.56,55.56-24.87,55.56-55.56S86.24,0,55.56,0Zm0,109.33C25.86,109.33,1.78,85.26,1.78,55.56S25.86,1.78,55.56,1.78s53.78,24.08,53.78,53.78-24.08,53.78-53.78,53.78Z" style="fill:#18d11c; opacity:.5;"/><path d="M55.56,9.54C30.14,9.54,9.54,30.14,9.54,55.56s20.6,46.02,46.02,46.02,46.02-20.6,46.02-46.02S80.97,9.54,55.56,9.54Zm0,89.41c-23.97,0-43.39-19.43-43.39-43.39S31.59,12.16,55.56,12.16s43.39,19.43,43.39,43.39-19.43,43.39-43.39,43.39Z" style="fill:#18d11c; opacity:.6;"/><path d="M55.56,19.68c-19.82,0-35.88,16.06-35.88,35.88s16.06,35.88,35.88,35.88,35.88-16.06,35.88-35.88S75.37,19.68,55.56,19.68Zm0,68.33c-17.92,0-32.45-14.53-32.45-32.45S37.63,23.11,55.56,23.11s32.45,14.53,32.45,32.45-14.53,32.45-32.45,32.45Z" style="fill:#18d11c; opacity:.65;"/><path d="M55.56,28.4c-15,0-27.16,12.16-27.16,27.16s12.16,27.16,27.16,27.16,27.16-12.16,27.16-27.16-12.16-27.16-27.16-27.16Zm0,48.74c-11.92,0-21.58-9.66-21.58-21.58s9.66-21.58,21.58-21.58,21.58,9.66,21.58,21.58-9.66,21.58-21.58,21.58Z" style="fill:#18d11c; opacity:.7;"/><path d="M55.56,38.01c-9.69,0-17.54,7.86-17.54,17.54s7.86,17.54,17.54,17.54,17.54-7.86,17.54-17.54-7.86-17.54-17.54-17.54Zm0,28.36c-5.97,0-10.82-4.84-10.82-10.82s4.84-10.82,10.82-10.82,10.82,4.84,10.82,10.82-4.84,10.82-10.82,10.82Z" style="fill:#18d11c; opacity:.76;"/></svg>